HIERARCHY
ROOT pelvis
{
  OFFSET 0 100 0
  CHANNELS 6 Xposition Yposition Zposition Zrotation Xrotation Yrotation
  JOINT pelvis_right_femur
  {
    OFFSET -10.78128 -3.44521 -0.5502486
    CHANNELS 3 Zrotation Xrotation Yrotation
    JOINT right_femur_tibia
    {
      OFFSET -0.8047443 -44.0398 -0.1307829
      CHANNELS 3 Zrotation Xrotation Yrotation
      JOINT right_tibia_foot
      {
        OFFSET 3.006224 -47.83518 -5
        CHANNELS 3 Zrotation Xrotation Yrotation
        End Site
        {
          OFFSET 0 -5 15
        }
      }
    }
  }
  JOINT pelvis_left_femur
  {
    OFFSET 10.78128 -3.44521 -0.5502486
    CHANNELS 3 Zrotation Xrotation Yrotation
    JOINT left_femur_tibia
    {
      OFFSET 0.8047443 -44.0398 -0.1307829
      CHANNELS 3 Zrotation Xrotation Yrotation
      JOINT left_tibia_foot
      {
        OFFSET -4.370144 -48.10324 -4.275266
        CHANNELS 3 Zrotation Xrotation Yrotation
        End Site
        {
          OFFSET 0 -5 15
        }
      }
    }
  }
  JOINT pelvis_spine1
  {
    OFFSET 0 6.468898 -3.129235
    CHANNELS 3 Zrotation Xrotation Yrotation
    JOINT spine1
    {
      OFFSET 0 23.15396 4.99043
      CHANNELS 3 Zrotation Xrotation Yrotation
      JOINT spine2
      {
        OFFSET 0 20.79997 -5.064912
        CHANNELS 3 Zrotation Xrotation Yrotation
        JOINT neck
        {
          OFFSET 0 14.38658 9.616178
          CHANNELS 3 Zrotation Xrotation Yrotation
          End Site
          {
            OFFSET 0 20 0
          }
        }
      }
      JOINT right_manubrium
      {
        OFFSET -5.722621 16.35077 3.967754
        CHANNELS 3 Zrotation Xrotation Yrotation
        JOINT right_clavicle
        {
          OFFSET -13.16364 1.694482 -4.693211
          CHANNELS 3 Zrotation Xrotation Yrotation
          JOINT right_humerus
          {
            OFFSET -28.5034 -0.3100689 -2.792744
            CHANNELS 3 Zrotation Xrotation Yrotation
            JOINT right_radius
            {
              OFFSET -25.15693 0.02248979 -1.271978
              CHANNELS 3 Zrotation Xrotation Yrotation
              End Site
              {
                OFFSET -15 0 0
              }
            }
          }
        }
      }
      JOINT left_manubrium
      {
        OFFSET 5.722621 16.35077 3.967754
        CHANNELS 3 Zrotation Xrotation Yrotation
        JOINT left_clavicle
        {
          OFFSET 13.16364 1.694482 -4.693211
          CHANNELS 3 Zrotation Xrotation Yrotation
          JOINT left_humerus
          {
            OFFSET 29.39168 -1.063119 -2.237045
            CHANNELS 3 Zrotation Xrotation Yrotation
            JOINT left_radius
            {
              OFFSET 24.59957 -0.9528479 0.9047498
              CHANNELS 3 Zrotation Xrotation Yrotation
              End Site
              {
                OFFSET 15 -0 -0
              }
            }
          }
        }
      }
    }
  }
}
MOTION
Frames: 9
Frame Time: 0.0416666666667
0 103.5113 0 1.801806 -2.257015 0.05461807 2.244229 -13.02294 6.988521 -0 35.9471 -0 -4.608755 -18.04687 -4.762688 -6.98192 13.73173 -24.7605 -0 6.764083 -0 -0.6316083 -20.36312 22.62868 -4.176293 -3.089809 3.427175 2.090851 7.397443 -7.697794 0.3973187 23.70535 8.022329 4.096474 -21.68221 8.217028 7.041879 -18.15914 10.99385 86.05648 37.35276 -21.58635 -0 0 15.62437 -8.40763 8.938305 4.862915 4.425187 -18.16781 -3.398847 -99.84236 40.89654 27.20255 0 0 -19.35262 -11.7072 16.41607 27.08986
0.1341897 102.7837 1.352916 1.343105 -1.914112 0.04561069 2.735662 -14.8316 7.114383 -0 36.03264 -0 -4.806922 -16.91708 -4.77537 -6.646573 13.52284 -24.28714 -0 6.590204 -0 -0.7238477 -20.55615 22.20544 -3.782733 -2.914418 3.408732 2.164244 7.572586 -7.855832 0.4750807 23.41444 7.970271 4.047025 -22.21708 8.296756 6.89013 -18.37982 11.07677 86.20295 36.87203 -21.65737 -0 0 15.72512 -8.532218 8.9927 5.029799 4.545129 -18.46648 -3.31193 -99.42643 40.235 27.033 0 0 -19.55768 -10.93898 16.38 26.55741
0.270274 101.558 3.912884 -0.8888136 0.4532176 0.2636534 4.247721 -28.17547 4.611477 -0 27.06089 -0 -5.936069 -7.61214 -3.961218 -4.63896 12.81073 -19.53624 -0 6.843005 -0 -4.938956 -23.26075 16.14877 -1.919966 -0.6303112 2.670017 2.441465 7.850852 -8.757016 0.562819 21.89801 8.784343 4.845805 -23.89519 8.530176 6.277368 -17.74295 11.27448 87.16118 35.93443 -22.78994 -0 0 14.29918 -12.5945 11.24112 7.206402 5.903029 -21.09913 -3.660278 -94.83636 37.3331 22.36868 0 0 -23.35017 -8.091348 15.36774 24.72598
0.3378454 99.99537 6.846891 -0.9788313 1.196243 0.6116673 3.848923 -30.99621 3.242058 -0 21.09652 -0 -6.491046 -5.028917 -3.54717 -4.377527 12.88387 -18.4354 -0 8.16683 -0 -7.139656 -24.46408 13.92083 -1.816865 0.06607208 2.503341 2.42574 7.431925 -8.761227 0.6390262 21.76424 9.137251 5.306009 -23.98274 8.599504 6.164872 -16.98524 11.13262 87.59465 36.42141 -23.48257 -0 0 13.29686 -13.8215 12.03043 7.690582 6.213622 -21.69139 -3.87807 -94.06623 37.77147 21.13021 0 0 -24.71997 -8.8156 15.07608 25.82695
0.4438057 97.898 10.51362 -0.5748767 1.173951 1.124293 2.27083 -33.45703 0.723775 -0 15.55659 -0 -7.374473 -0.1512922 -3.250305 -4.547992 12.89398 -14.66375 -0 5.958909 -0 -6.538266 -25.48715 12.16299 -2.331332 0.6166802 2.390625 2.611694 8.182951 -9.134697 0.5099648 21.35778 8.972184 5.147518 -23.98938 8.090563 4.930884 -17.0231 11.2908 89.10567 34.47831 -24.21309 -0 0 11.10808 -16.46535 11.40856 9.485745 6.284784 -23.52625 -4.587999 -89.50778 34.32773 16.54387 0 0 -28.34514 -5.925661 13.16097 22.59044
0.6079074 95.37775 14.70866 0.04354335 0.885065 1.788295 0.6477102 -34.14086 -1.282492 -0 11.28366 -0 -7.751806 2.75975 -3.148464 -4.872683 13.03838 -12.08752 -0 4.152303 -0 -6.223479 -26.34679 11.02172 -2.871013 0.8851609 2.431657 2.592991 8.56223 -9.215934 0.4641694 21.25584 8.79864 4.993383 -23.58147 7.715166 3.946671 -16.94238 11.27626 90.18429 33.00588 -24.69463 -0 0 9.542373 -18.37868 10.91825 10.56427 6.320462 -24.70563 -5.173811 -86.60105 32.03752 13.43223 0 0 -31.07383 -4.42172 11.68361 20.80145
0.8549468 92.44049 19.41175 0.752781 0.08628826 2.582189 -0.8449868 -33.83407 -2.962164 -0 8.13229 -0 -7.85495 4.48982 -3.371645 -5.264463 13.66856 -9.68351 -0 1.990678 -0 -5.252696 -26.91099 10.51129 -3.390036 0.9116071 2.471648 2.530549 8.980078 -9.189203 0.5418392 21.34497 8.283694 4.48443 -22.86866 7.359021 2.614941 -16.97599 11.17969 91.30187 30.55772 -24.85757 -0 0 8.060195 -19.78478 10.01016 11.25932 6.311302 -25.65634 -5.698183 -83.83926 29.20644 10.29964 0 0 -33.51185 -2.406623 10.381 18.18089
1.19255 89.20968 24.57194 1.451861 -0.7945723 3.478559 -1.944262 -32.8206 -4.043163 -0 5.656537 -0 -7.679663 5.072234 -3.833254 -5.626542 14.49441 -7.964913 -0 0.5857567 -0 -4.483839 -27.25606 10.31217 -3.783257 0.8010612 2.525581 2.391363 9.163 -9.006598 0.7457382 21.57648 7.67671 3.910428 -22.03169 7.148362 1.394757 -16.87954 10.99195 92.18174 28.2027 -24.81604 -0 0 6.891427 -20.61551 9.250828 11.487 6.294816 -26.14754 -6.053085 -81.91172 26.96313 7.833935 0 0 -35.1243 -0.8916048 9.520456 16.04192
1.613201 85.81447 30.13806 2.023165 -1.798085 4.416738 -2.446451 -31.25475 -4.443268 -0 4.207851 -0 -7.298258 4.482968 -4.549926 -5.867225 15.61017 -6.892515 -0 0.2486655 -0 -3.838246 -27.16323 10.42715 -3.955989 0.5604186 2.515622 2.222753 9.167882 -8.712709 1.087987 21.93759 6.918193 3.208524 -21.12493 7.080984 0.2596257 -16.65676 10.74742 92.85548 25.75805 -24.52946 -0 0 5.990126 -20.80012 8.603774 11.26317 6.26015 -26.16239 -6.204302 -80.65177 25.1453 5.856718 0 0 -35.73037 0.4696685 9.20977 13.95493
